<svg xmlns="http://www.w3.org/2000/svg" xmlns:xlink="http://www.w3.org/1999/xlink" width="1000" zoomAndPan="magnify" viewBox="0 0 750 749.999995" height="1000" preserveAspectRatio="xMidYMid meet" version="1.0"><defs><clipPath id="452be02e9b"><path d="M 225 226.5 L 525 226.5 L 525 523.5 L 225 523.5 Z M 225 226.5 " clip-rule="nonzero"/></clipPath></defs><g clip-path="url(#452be02e9b)"><path fill="#000000" d="M 510.722656 374.738281 C 510.527344 431.898438 474.089844 484.222656 420.375 503.933594 C 367.289062 523.410156 306 506.503906 270.253906 462.792969 C 233.882812 418.324219 229.109375 353.875 258.832031 304.617188 C 288.242188 255.878906 346.5 229.105469 402.605469 240.734375 C 457.4375 252.097656 500.722656 297.761719 509.113281 353.207031 C 510.191406 360.335938 510.699219 367.527344 510.722656 374.738281 C 510.75 381.929688 524.703125 383.296875 524.675781 375.363281 C 524.570312 344.6875 514.851562 314.480469 497 289.523438 C 479.28125 264.75 454.167969 246.027344 425.632812 235.546875 C 396.398438 224.808594 363.386719 223.578125 333.441406 232.140625 C 304.210938 240.496094 278.191406 257.378906 258.777344 280.804688 C 239.335938 304.265625 227.902344 333.539062 225.625 363.859375 C 223.335938 394.40625 230.972656 425.089844 246.769531 451.269531 C 279.117188 504.875 344.042969 532.929688 405.3125 520.664062 C 465.339844 508.644531 513.722656 459.1875 522.917969 398.410156 C 524.070312 390.785156 524.648438 383.070312 524.675781 375.363281 C 524.699219 368.171875 510.75 366.800781 510.722656 374.738281 Z M 510.722656 374.738281 " fill-opacity="1" fill-rule="nonzero"/></g><path fill="#000000" d="M 349.472656 337.363281 C 349.472656 338.167969 349.441406 338.972656 349.382812 339.773438 C 349.328125 340.574219 349.238281 341.371094 349.125 342.160156 C 349.007812 342.953125 348.863281 343.730469 348.691406 344.503906 C 348.519531 345.273438 348.316406 346.03125 348.089844 346.777344 C 347.863281 347.519531 347.609375 348.246094 347.328125 348.957031 C 347.050781 349.667969 346.746094 350.359375 346.414062 351.027344 C 346.082031 351.699219 345.730469 352.34375 345.351562 352.96875 C 344.976562 353.589844 344.578125 354.1875 344.15625 354.757812 C 343.738281 355.324219 343.296875 355.867188 342.839844 356.378906 C 342.378906 356.886719 341.902344 357.367188 341.40625 357.816406 C 340.914062 358.261719 340.40625 358.675781 339.878906 359.054688 C 339.355469 359.4375 338.820312 359.78125 338.269531 360.089844 C 337.722656 360.394531 337.164062 360.667969 336.59375 360.902344 C 336.027344 361.136719 335.449219 361.332031 334.867188 361.488281 C 334.285156 361.644531 333.695312 361.761719 333.105469 361.84375 C 332.515625 361.921875 331.921875 361.960938 331.328125 361.960938 C 330.734375 361.960938 330.140625 361.921875 329.546875 361.84375 C 328.957031 361.761719 328.371094 361.644531 327.785156 361.488281 C 327.203125 361.332031 326.628906 361.136719 326.058594 360.902344 C 325.492188 360.667969 324.933594 360.394531 324.382812 360.089844 C 323.832031 359.78125 323.296875 359.4375 322.773438 359.054688 C 322.25 358.675781 321.738281 358.261719 321.246094 357.816406 C 320.75 357.367188 320.273438 356.886719 319.816406 356.378906 C 319.355469 355.867188 318.917969 355.324219 318.496094 354.757812 C 318.074219 354.1875 317.675781 353.589844 317.300781 352.96875 C 316.921875 352.34375 316.570312 351.699219 316.238281 351.027344 C 315.910156 350.359375 315.605469 349.667969 315.324219 348.957031 C 315.042969 348.246094 314.789062 347.519531 314.5625 346.777344 C 314.335938 346.03125 314.136719 345.273438 313.960938 344.503906 C 313.789062 343.730469 313.644531 342.953125 313.53125 342.160156 C 313.414062 341.371094 313.328125 340.574219 313.269531 339.773438 C 313.210938 338.972656 313.179688 338.167969 313.179688 337.363281 C 313.179688 336.558594 313.210938 335.753906 313.269531 334.953125 C 313.328125 334.148438 313.414062 333.355469 313.53125 332.5625 C 313.644531 331.773438 313.789062 330.992188 313.960938 330.222656 C 314.136719 329.453125 314.335938 328.695312 314.5625 327.949219 C 314.789062 327.207031 315.042969 326.476562 315.324219 325.769531 C 315.605469 325.058594 315.910156 324.367188 316.238281 323.699219 C 316.570312 323.027344 316.921875 322.382812 317.300781 321.757812 C 317.675781 321.136719 318.074219 320.539062 318.496094 319.96875 C 318.917969 319.402344 319.355469 318.859375 319.816406 318.347656 C 320.273438 317.839844 320.75 317.359375 321.246094 316.910156 C 321.738281 316.464844 322.25 316.050781 322.773438 315.671875 C 323.296875 315.289062 323.832031 314.945312 324.382812 314.636719 C 324.933594 314.328125 325.492188 314.058594 326.058594 313.824219 C 326.628906 313.589844 327.203125 313.394531 327.785156 313.238281 C 328.371094 313.082031 328.957031 312.964844 329.546875 312.882812 C 330.140625 312.804688 330.734375 312.765625 331.328125 312.765625 C 331.921875 312.765625 332.515625 312.804688 333.105469 312.882812 C 333.695312 312.964844 334.285156 313.082031 334.867188 313.238281 C 335.449219 313.394531 336.027344 313.589844 336.59375 313.824219 C 337.164062 314.058594 337.722656 314.328125 338.269531 314.636719 C 338.820312 314.945312 339.355469 315.289062 339.878906 315.671875 C 340.40625 316.050781 340.914062 316.464844 341.40625 316.910156 C 341.902344 317.359375 342.378906 317.839844 342.839844 318.347656 C 343.296875 318.859375 343.738281 319.402344 344.15625 319.96875 C 344.578125 320.539062 344.976562 321.136719 345.351562 321.757812 C 345.730469 322.382812 346.082031 323.027344 346.414062 323.699219 C 346.746094 324.367188 347.050781 325.058594 347.328125 325.769531 C 347.609375 326.476562 347.863281 327.207031 348.089844 327.949219 C 348.316406 328.695312 348.519531 329.453125 348.691406 330.222656 C 348.863281 330.992188 349.007812 331.773438 349.125 332.5625 C 349.238281 333.355469 349.328125 334.148438 349.382812 334.953125 C 349.441406 335.753906 349.472656 336.558594 349.472656 337.363281 Z M 349.472656 337.363281 " fill-opacity="1" fill-rule="nonzero"/><path fill="#000000" d="M 436.714844 337.363281 C 436.714844 338.167969 436.683594 338.972656 436.625 339.773438 C 436.566406 340.574219 436.480469 341.371094 436.363281 342.160156 C 436.25 342.953125 436.105469 343.730469 435.933594 344.503906 C 435.761719 345.273438 435.558594 346.03125 435.332031 346.777344 C 435.105469 347.519531 434.851562 348.246094 434.570312 348.957031 C 434.289062 349.667969 433.984375 350.359375 433.65625 351.027344 C 433.324219 351.699219 432.972656 352.34375 432.59375 352.96875 C 432.21875 353.589844 431.820312 354.1875 431.398438 354.757812 C 430.980469 355.324219 430.539062 355.867188 430.078125 356.378906 C 429.621094 356.886719 429.144531 357.367188 428.648438 357.816406 C 428.15625 358.261719 427.644531 358.675781 427.121094 359.054688 C 426.597656 359.4375 426.0625 359.78125 425.511719 360.089844 C 424.964844 360.394531 424.40625 360.667969 423.835938 360.902344 C 423.265625 361.136719 422.691406 361.332031 422.109375 361.488281 C 421.527344 361.644531 420.9375 361.761719 420.347656 361.84375 C 419.753906 361.921875 419.164062 361.960938 418.570312 361.960938 C 417.972656 361.960938 417.382812 361.921875 416.789062 361.84375 C 416.199219 361.761719 415.609375 361.644531 415.027344 361.488281 C 414.445312 361.332031 413.871094 361.136719 413.300781 360.902344 C 412.730469 360.667969 412.171875 360.394531 411.625 360.089844 C 411.074219 359.78125 410.539062 359.4375 410.015625 359.054688 C 409.492188 358.675781 408.980469 358.261719 408.488281 357.816406 C 407.992188 357.367188 407.515625 356.886719 407.058594 356.378906 C 406.597656 355.867188 406.15625 355.324219 405.738281 354.757812 C 405.316406 354.1875 404.917969 353.589844 404.542969 352.96875 C 404.164062 352.34375 403.8125 351.699219 403.480469 351.027344 C 403.152344 350.359375 402.847656 349.667969 402.566406 348.957031 C 402.285156 348.246094 402.03125 347.519531 401.804688 346.777344 C 401.578125 346.03125 401.378906 345.273438 401.203125 344.503906 C 401.03125 343.730469 400.886719 342.953125 400.773438 342.160156 C 400.65625 341.371094 400.570312 340.574219 400.511719 339.773438 C 400.453125 338.972656 400.421875 338.167969 400.421875 337.363281 C 400.421875 336.558594 400.453125 335.753906 400.511719 334.953125 C 400.570312 334.148438 400.65625 333.355469 400.773438 332.5625 C 400.886719 331.773438 401.03125 330.992188 401.203125 330.222656 C 401.378906 329.453125 401.578125 328.695312 401.804688 327.949219 C 402.03125 327.207031 402.285156 326.476562 402.566406 325.769531 C 402.847656 325.058594 403.152344 324.367188 403.480469 323.699219 C 403.8125 323.027344 404.164062 322.382812 404.542969 321.757812 C 404.917969 321.136719 405.316406 320.539062 405.738281 319.96875 C 406.15625 319.402344 406.597656 318.859375 407.058594 318.347656 C 407.515625 317.839844 407.992188 317.359375 408.488281 316.910156 C 408.980469 316.464844 409.492188 316.050781 410.015625 315.671875 C 410.539062 315.289062 411.074219 314.945312 411.625 314.636719 C 412.171875 314.328125 412.730469 314.058594 413.300781 313.824219 C 413.871094 313.589844 414.445312 313.394531 415.027344 313.238281 C 415.609375 313.082031 416.199219 312.964844 416.789062 312.882812 C 417.382812 312.804688 417.972656 312.765625 418.570312 312.765625 C 419.164062 312.765625 419.753906 312.804688 420.347656 312.882812 C 420.9375 312.964844 421.527344 313.082031 422.109375 313.238281 C 422.691406 313.394531 423.265625 313.589844 423.835938 313.824219 C 424.40625 314.058594 424.964844 314.328125 425.511719 314.636719 C 426.0625 314.945312 426.597656 315.289062 427.121094 315.671875 C 427.644531 316.050781 428.15625 316.464844 428.648438 316.910156 C 429.144531 317.359375 429.621094 317.839844 430.078125 318.347656 C 430.539062 318.859375 430.980469 319.402344 431.398438 319.96875 C 431.820312 320.539062 432.21875 321.136719 432.59375 321.757812 C 432.972656 322.382812 433.324219 323.027344 433.65625 323.699219 C 433.984375 324.367188 434.289062 325.058594 434.570312 325.769531 C 434.851562 326.476562 435.105469 327.207031 435.332031 327.949219 C 435.558594 328.695312 435.761719 329.453125 435.933594 330.222656 C 436.105469 330.992188 436.25 331.773438 436.363281 332.5625 C 436.480469 333.355469 436.566406 334.148438 436.625 334.953125 C 436.683594 335.753906 436.714844 336.558594 436.714844 337.363281 Z M 436.714844 337.363281 " fill-opacity="1" fill-rule="nonzero"/><path fill="#000000" d="M 305.421875 422.140625 L 352.761719 422.140625 C 377.796875 422.140625 402.835938 422.140625 427.875 422.140625 L 445.28125 422.140625 C 448.4375 422.140625 452.089844 420.359375 451.851562 416.695312 C 451.628906 413.214844 447.734375 410.628906 444.472656 410.628906 C 428.695312 410.628906 412.914062 410.628906 397.132812 410.628906 C 372.097656 410.628906 347.058594 410.628906 322.019531 410.628906 L 304.613281 410.628906 C 301.457031 410.628906 297.804688 412.410156 298.042969 416.070312 C 298.265625 419.550781 302.160156 422.140625 305.421875 422.140625 Z M 305.421875 422.140625 " fill-opacity="1" fill-rule="nonzero"/><path fill="#003b6e" d="M 374.9375 749.921875 C 581.46875 749.921875 749.953125 581.484375 749.953125 374.953125 C 749.953125 168.375 581.46875 -0.0625 374.9375 -0.0625 C 168.40625 -0.0625 -0.078125 168.375 -0.078125 374.953125 C -0.078125 581.484375 168.40625 749.921875 374.9375 749.921875 Z M 374.9375 749.921875 " fill-opacity="1" fill-rule="evenodd"/><path fill="#ff751f" d="M 200.734375 616.390625 L 266.203125 599.15625 L 215.09375 548.046875 C 190.90625 567.75 182.921875 592.203125 200.734375 616.390625 Z M 532.125 545.96875 L 472.015625 561.828125 L 538.28125 628.09375 C 568.359375 601.203125 564.40625 570.671875 532.125 545.96875 Z M 509.3125 130.640625 C 435.078125 56.40625 314.734375 56.40625 240.515625 130.640625 C 206.140625 165.0625 184.84375 212.53125 184.84375 265.015625 C 184.84375 352.09375 256.15625 421.671875 307.359375 488.515625 L 374.90625 576.609375 L 442.5 488.515625 C 493.703125 421.6875 564.96875 352.09375 564.96875 265.015625 C 564.9375 212.546875 543.6875 165.0625 509.3125 130.640625 Z M 353.8125 576.03125 L 303.890625 510.96875 C 274.078125 516.90625 248.265625 526.421875 228.734375 538.421875 L 284.578125 594.265625 Z M 390.4375 583.34375 L 381.453125 595.078125 C 378.09375 599.46875 371.53125 599.28125 368.296875 594.9375 L 364.625 590.109375 L 213.6875 629.921875 C 250.625 661.0625 316.96875 674.875 374.953125 674.875 C 430.890625 674.875 487.984375 662.609375 525.140625 638.109375 L 453.65625 566.625 Z M 445.9375 510.96875 L 406.734375 562.078125 L 513.34375 533.953125 C 494.921875 524.078125 471.9375 516.15625 445.9375 510.96875 Z M 445.671875 193.453125 C 406.609375 154.390625 343.21875 154.390625 304.15625 193.453125 C 265.09375 232.515625 265.09375 295.90625 304.15625 334.96875 C 343.21875 374.03125 406.609375 374.03125 445.671875 334.96875 C 484.734375 295.890625 484.734375 232.515625 445.671875 193.453125 Z M 374.890625 147.734375 C 439.25 147.734375 491.375 199.859375 491.375 264.171875 C 491.375 328.53125 439.25 380.65625 374.890625 380.65625 C 310.578125 380.65625 258.453125 328.53125 258.453125 264.171875 C 258.453125 199.875 310.578125 147.734375 374.890625 147.734375 Z M 374.890625 147.734375 " fill-opacity="1" fill-rule="nonzero"/></svg>